# xmcd
#
# Track frame offsets: 
#        150
#        20193
#        36674
#        52453
#        71451
#        88565
#        101902
#        127081
#        148743
#        163457
#        179810
#        200297
#        218818
#        234271
#        252057
#        271394
#        287840
#        303785
#        324383
#        343439
#
# Disc length: 4760 seconds
#
# Revision: 1
# Processed by: cddbd v1.5.2PL0 Copyright (c) Steve Scherf et al.
# Submitted via: ExactAudioCopy v1.0b3
#
DISCID=4a129614
DTITLE=Various Artist - C'était mieux avant - Les Années 80 - CD4
DYEAR=2016
DGENRE=Pop
TTITLE0=David and Jonathan - Est-ce que tu viens pour les vacances
TTITLE1=Kool and The Gang - Celebration
TTITLE2=Eddy Mitchell - Couleur menthe à l'eau
TTITLE3=Michel Sardou - Etre une Femme
TTITLE4=Visage - Fade to grey
TTITLE5=Noir Désir - Aux sombres héros de l'amer
TTITLE6=Serge Gainsbourg - Mon légionnaire
TTITLE7=Black - Wonderful lile
TTITLE8=Captain Sensible - Wot
TTITLE9=Mike Oldfield - Moonlight shadow
TTITLE10=Donna Summer - She works hard for the money
TTITLE11=Dexys Midnight Runners - Come on eileen
TTITLE12=Les Avions - Nuit sauvage
TTITLE13=Sandra - Maria Magdalena (i'll never be)
TTITLE14=Patsy - Liverpool
TTITLE15=Silver Pozzoli - Around my dream
TTITLE16=Luna Parker - Tes états d'âme... Eric
TTITLE17=Texas - Everyday now
TTITLE18=Roxy Music - Avalon
TTITLE19=UB40 - Red red wine
EXTD=
EXTT0=
EXTT1=
EXTT2=
EXTT3=
EXTT4=
EXTT5=
EXTT6=
EXTT7=
EXTT8=
EXTT9=
EXTT10=
EXTT11=
EXTT12=
EXTT13=
EXTT14=
EXTT15=
EXTT16=
EXTT17=
EXTT18=
EXTT19=
PLAYORDER=
